Coordinates
version=1
nRows=34
nColumns=38
inDegrees=no

Units are S.I. units (second, meters, Newtons, ...)
If the header above contains a line with 'inDegrees', this indicates whether rotational values are in degrees (yes) or radians (no).

endheader
time	pelvis_tilt	pelvis_list	pelvis_rotation	pelvis_tx	pelvis_ty	pelvis_tz	hip_flexion_r	hip_adduction_r	hip_rotation_r	knee_angle_r	ankle_angle_r	subtalar_angle_r	mtp_angle_r	hip_flexion_l	hip_adduction_l	hip_rotation_l	knee_angle_l	ankle_angle_l	subtalar_angle_l	mtp_angle_l	lumbar_extension	lumbar_bending	lumbar_rotation	arm_flex_r	arm_add_r	arm_rot_r	elbow_flex_r	pro_sup_r	wrist_flex_r	wrist_dev_r	arm_flex_l	arm_add_l	arm_rot_l	elbow_flex_l	pro_sup_l	wrist_flex_l	wrist_dev_l
5.99	2.94899	1.48376	-1.37883	0.614527	1.81495	1.04685	0.0855905	-0.0406812	-0.134825	0.530388	-0.157252	0	0	-0.125028	-0.0419582	-0.19677	0.175489	-0.374794	0	0	-0.120393	-0.0507231	-0.0735048	0.697247	-0.263492	0.85554	1.07728	1.5708	0	0	0.450137	-0.321698	0.530637	1.23458	1.5708	0	0
6	2.95216	1.48204	-1.38039	0.616163	1.81761	1.04696	0.0791578	-0.0395644	-0.141674	0.527582	-0.155836	0	0	-0.130835	-0.0440403	-0.197621	0.173397	-0.374633	0	0	-0.117864	-0.0487941	-0.075312	0.697926	-0.258267	0.859981	1.07011	1.5708	0	0	0.448139	-0.324097	0.530264	1.23101	1.5708	0	0
6.01	2.95286	1.48104	-1.38006	0.617814	1.82012	1.04702	0.0738197	-0.038306	-0.147257	0.524635	-0.154526	0	0	-0.135251	-0.0461388	-0.198925	0.172305	-0.374116	0	0	-0.114309	-0.0469902	-0.076564	0.699073	-0.252887	0.865459	1.06193	1.5708	0	0	0.446435	-0.326449	0.530547	1.22686	1.5708	0	0
6.02	2.95297	1.48028	-1.3795	0.619461	1.82247	1.04707	0.0690039	-0.0368062	-0.15142	0.521572	-0.153156	0	0	-0.13869	-0.0483187	-0.200596	0.172408	-0.373334	0	0	-0.110823	-0.0442101	-0.0769614	0.700056	-0.248467	0.870499	1.05489	1.5708	0	0	0.445671	-0.328922	0.53223	1.22227	1.5708	0	0
6.03	2.95656	1.47966	-1.38263	0.621106	1.82471	1.04713	0.0646618	-0.0354545	-0.15447	0.519163	-0.151441	0	0	-0.141205	-0.0502926	-0.202722	0.173901	-0.372443	0	0	-0.106963	-0.0415618	-0.077194	0.701567	-0.243747	0.87642	1.0469	1.5708	0	0	0.445338	-0.331829	0.534847	1.21711	1.5708	0	0
6.04	2.96533	1.47891	-1.39106	0.62272	1.82687	1.04717	0.060675	-0.0345897	-0.15717	0.51804	-0.149571	0	0	-0.143476	-0.0517935	-0.204694	0.176195	-0.371483	0	0	-0.103845	-0.0400965	-0.0774476	0.703338	-0.238868	0.882168	1.03904	1.5708	0	0	0.445158	-0.334459	0.536859	1.21231	1.5708	0	0
6.05	2.97584	1.47792	-1.40154	0.62425	1.82893	1.04723	0.0569983	-0.0340355	-0.159044	0.517858	-0.147858	0	0	-0.145761	-0.0530404	-0.205774	0.178901	-0.37049	0	0	-0.100533	-0.0369451	-0.07691	0.705026	-0.234775	0.88792	1.03146	1.5708	0	0	0.446047	-0.337386	0.540864	1.20627	1.5708	0	0
6.06	2.99055	1.4767	-1.41647	0.625769	1.83087	1.04729	0.0531874	-0.0337506	-0.159164	0.517679	-0.146109	0	0	-0.148061	-0.0537335	-0.205758	0.181826	-0.369438	0	0	-0.100008	-0.0366763	-0.0769067	0.706573	-0.230541	0.891108	1.02642	1.5708	0	0	0.445059	-0.339007	0.539367	1.20417	1.5708	0	0
6.07	3.00796	1.47559	-1.43418	0.627274	1.83272	1.04731	0.0498466	-0.03383	-0.159071	0.518094	-0.144505	0	0	-0.149971	-0.0540561	-0.20498	0.185141	-0.368077	0	0	-0.101505	-0.0392703	-0.0766914	0.707292	-0.227403	0.891614	1.0247	1.5708	0	0	0.443638	-0.339284	0.535014	1.20457	1.5708	0	0
6.08	3.02349	1.47386	-1.44975	0.628668	1.83452	1.04739	0.0456926	-0.0337463	-0.15924	0.517978	-0.141988	0	0	-0.152223	-0.0545086	-0.203976	0.188846	-0.366573	0	0	-0.102443	-0.0388224	-0.0815443	0.714457	-0.219967	0.903697	1.01593	1.5708	0	0	0.437293	-0.341898	0.524309	1.20693	1.5708	0	0
6.09	3.03614	1.47269	-1.46263	0.630019	1.83627	1.04743	0.0423961	-0.0335008	-0.158704	0.518277	-0.140335	0	0	-0.153974	-0.0549738	-0.202441	0.19219	-0.36501	0	0	-0.10166	-0.0377046	-0.0815403	0.717275	-0.216522	0.909479	1.01046	1.5708	0	0	0.437112	-0.343496	0.524229	1.20369	1.5708	0	0
6.1	3.04736	1.47132	-1.47442	0.631273	1.83789	1.04748	0.0389675	-0.0331791	-0.157591	0.518318	-0.138935	0	0	-0.155845	-0.0552058	-0.201573	0.195298	-0.363252	0	0	-0.100682	-0.0351853	-0.0809161	0.720602	-0.213727	0.916338	1.00473	1.5708	0	0	0.438002	-0.345218	0.526172	1.1991	1.5708	0	0
6.11	3.05758	1.47005	-1.48503	0.632439	1.83943	1.04755	0.0356215	-0.032912	-0.156483	0.518008	-0.137663	0	0	-0.157276	-0.0552995	-0.201359	0.198426	-0.361246	0	0	-0.0990993	-0.0319416	-0.0806361	0.72439	-0.21039	0.92402	0.997598	1.5708	0	0	0.439118	-0.347227	0.528891	1.19379	1.5708	0	0
6.12	3.06619	1.46882	-1.49345	0.633525	1.84088	1.04758	0.0323043	-0.032656	-0.156238	0.517463	-0.136473	0	0	-0.158398	-0.0556798	-0.201463	0.201633	-0.358949	0	0	-0.0988743	-0.0291525	-0.0815321	0.72818	-0.207354	0.930651	0.99251	1.5708	0	0	0.439091	-0.348763	0.528458	1.1906	1.5708	0	0
6.13	3.07134	1.46767	-1.49782	0.634544	1.84225	1.04758	0.0290528	-0.0320325	-0.156947	0.516935	-0.13532	0	0	-0.159286	-0.0566574	-0.202059	0.204878	-0.356528	0	0	-0.0994023	-0.026824	-0.083703	0.732352	-0.203796	0.937078	0.987795	1.5708	0	0	0.43817	-0.35014	0.525607	1.18884	1.5708	0	0
6.14	3.07131	1.46661	-1.49654	0.635489	1.84354	1.04754	0.0259962	-0.0309014	-0.158492	0.516607	-0.134233	0	0	-0.160093	-0.0583453	-0.203672	0.207954	-0.35409	0	0	-0.100269	-0.0247289	-0.0867467	0.736702	-0.199778	0.943345	0.982958	1.5708	0	0	0.436685	-0.35102	0.521059	1.18806	1.5708	0	0
6.15	3.06691	1.46586	-1.4905	0.636304	1.84484	1.04742	0.023218	-0.0295203	-0.16133	0.516167	-0.133155	0	0	-0.160902	-0.0602315	-0.205854	0.210177	-0.351759	0	0	-0.100513	-0.0219045	-0.0900688	0.740883	-0.196427	0.950087	0.978603	1.5708	0	0	0.435246	-0.351654	0.517187	1.18693	1.5708	0	0
6.16	3.05769	1.46561	-1.47951	0.637054	1.84614	1.04724	0.0208601	-0.027641	-0.164554	0.515275	-0.132017	0	0	-0.161751	-0.0623463	-0.208158	0.210887	-0.349519	0	0	-0.0984928	-0.016964	-0.092986	0.745202	-0.193075	0.958553	0.972256	1.5708	0	0	0.434708	-0.352951	0.51687	1.18358	1.5708	0	0
6.17	3.04436	1.46538	-1.4644	0.637747	1.8474	1.04704	0.0183892	-0.0251471	-0.167411	0.513925	-0.130811	0	0	-0.162933	-0.0647525	-0.210371	0.210701	-0.347562	0	0	-0.096527	-0.0117128	-0.096107	0.749415	-0.189523	0.966589	0.965897	1.5708	0	0	0.433835	-0.354128	0.515997	1.18062	1.5708	0	0
6.18	3.02748	1.46504	-1.44567	0.638407	1.84859	1.04683	0.0156458	-0.0219884	-0.169461	0.51208	-0.129541	0	0	-0.164707	-0.067481	-0.212036	0.209441	-0.346094	0	0	-0.0950285	-0.00636885	-0.0993985	0.753292	-0.18619	0.973746	0.960343	1.5708	0	0	0.432805	-0.355064	0.514371	1.17822	1.5708	0	0
6.19	3.00998	1.46485	-1.42624	0.639019	1.84977	1.04658	0.0130058	-0.0187895	-0.171164	0.509958	-0.128456	0	0	-0.166804	-0.0701833	-0.213056	0.207177	-0.345173	0	0	-0.0933256	-0.00130652	-0.102901	0.756679	-0.182703	0.980068	0.955021	1.5708	0	0	0.431597	-0.356056	0.512564	1.17616	1.5708	0	0
6.2	2.99486	1.46457	-1.40908	0.639578	1.85096	1.04632	0.010019	-0.0158518	-0.172513	0.507315	-0.127459	0	0	-0.169297	-0.0725739	-0.21372	0.2043	-0.344921	0	0	-0.0919073	0.00269767	-0.106447	0.759366	-0.179197	0.984928	0.950264	1.5708	0	0	0.430225	-0.356896	0.510523	1.17486	1.5708	0	0
6.21	2.98171	1.46377	-1.39394	0.640076	1.85212	1.04614	0.00631393	-0.0130766	-0.173413	0.504303	-0.126606	0	0	-0.172556	-0.074877	-0.213798	0.200921	-0.345194	0	0	-0.0911664	0.00657099	-0.109326	0.761245	-0.176404	0.987962	0.946538	1.5708	0	0	0.429923	-0.357663	0.510106	1.17308	1.5708	0	0
6.22	2.97091	1.46231	-1.3808	0.64055	1.85323	1.04607	0.00171108	-0.0103581	-0.174419	0.501175	-0.125817	0	0	-0.176464	-0.0772915	-0.213038	0.197431	-0.345801	0	0	-0.0908583	0.00973859	-0.110977	0.761787	-0.174945	0.988927	0.943762	1.5708	0	0	0.431556	-0.357758	0.512286	1.16965	1.5708	0	0
6.23	2.96227	1.46054	-1.36954	0.640982	1.85433	1.04606	-0.00346201	-0.00789271	-0.175666	0.497625	-0.125301	0	0	-0.180459	-0.0797279	-0.211889	0.194349	-0.346641	0	0	-0.0911584	0.0125331	-0.112964	0.762037	-0.17361	0.989327	0.941503	1.5708	0	0	0.433073	-0.357979	0.514227	1.16666	1.5708	0	0
6.24	2.95676	1.45863	-1.36136	0.641385	1.85541	1.04611	-0.00914126	-0.00563415	-0.17695	0.49335	-0.12494	0	0	-0.184474	-0.0818649	-0.210633	0.191698	-0.347771	0	0	-0.0917607	0.0148408	-0.115165	0.76195	-0.171983	0.989089	0.939329	1.5708	0	0	0.434211	-0.358383	0.515858	1.16415	1.5708	0	0
6.25	2.95542	1.45707	-1.35736	0.641747	1.85649	1.04614	-0.0149732	-0.00365476	-0.177985	0.487892	-0.124536	0	0	-0.18808	-0.083429	-0.20921	0.189393	-0.348906	0	0	-0.0920544	0.016468	-0.117469	0.761638	-0.170324	0.98892	0.937334	1.5708	0	0	0.434922	-0.358957	0.517286	1.16211	1.5708	0	0
6.26	2.9556	1.45595	-1.3549	0.642071	1.85756	1.04619	-0.0203123	-0.00201018	-0.178887	0.482372	-0.124166	0	0	-0.191154	-0.0847395	-0.207943	0.187258	-0.349934	0	0	-0.0917828	0.0179009	-0.1198	0.761181	-0.168929	0.989274	0.935579	1.5708	0	0	0.435245	-0.359569	0.518788	1.16013	1.5708	0	0
6.27	2.95407	1.45483	-1.35089	0.642381	1.85857	1.0463	-0.0240957	-0.000787153	-0.181165	0.480392	-0.124085	0	0	-0.194026	-0.0863251	-0.207212	0.185507	-0.351201	0	0	-0.0914566	0.0193355	-0.122202	0.760695	-0.167155	0.989711	0.933331	1.5708	0	0	0.43529	-0.360233	0.520083	1.15816	1.5708	0	0
6.28	2.95387	1.45417	-1.34851	0.642676	1.85954	1.0464	-0.0274051	0.000186351	-0.182746	0.478067	-0.124056	0	0	-0.196106	-0.0874514	-0.207026	0.184063	-0.352599	0	0	-0.090734	0.0205929	-0.124305	0.760053	-0.165683	0.990194	0.931477	1.5708	0	0	0.435088	-0.360734	0.521165	1.15628	1.5708	0	0
6.29	2.9556	1.45405	-1.34843	0.642977	1.86047	1.04647	-0.0302236	0.000932321	-0.183827	0.475375	-0.124017	0	0	-0.197498	-0.0880708	-0.207067	0.182754	-0.353894	0	0	-0.0894394	0.0213466	-0.125985	0.759281	-0.164142	0.99066	0.929517	1.5708	0	0	0.434948	-0.361386	0.522756	1.15451	1.5708	0	0
6.3	2.95894	1.45476	-1.35035	0.643275	1.86134	1.04647	-0.0319923	0.00135736	-0.184544	0.47288	-0.123311	0	0	-0.197817	-0.0883345	-0.207593	0.182098	-0.353479	0	0	-0.0875032	0.0211696	-0.126682	0.758027	-0.163498	0.990582	0.928588	1.5708	0	0	0.434975	-0.361764	0.524433	1.15286	1.5708	0	0
6.31	2.96394	1.45488	-1.35399	0.643521	1.86212	1.04656	-0.035404	0.00203475	-0.184217	0.467258	-0.123227	0	0	-0.199172	-0.0883562	-0.207612	0.18046	-0.355133	0	0	-0.086445	0.0209656	-0.127277	0.757417	-0.162943	0.991092	0.927482	1.5708	0	0	0.435754	-0.363226	0.527436	1.15103	1.5708	0	0
6.32	2.96833	1.45501	-1.35725	0.643757	1.86285	1.04668	-0.0378702	0.00235544	-0.184662	0.463457	-0.123472	0	0	-0.200648	-0.0883168	-0.207885	0.178587	-0.357066	0	0	-0.0854589	0.0208551	-0.1278	0.757068	-0.162129	0.99164	0.925953	1.5708	0	0	0.43685	-0.365511	0.531074	1.14916	1.5708	0	0
